<mxfile host="app.diagrams.net" modified="2023-10-20T13:28:27.535Z" agent="Mozilla/5.0 (X11; Linux x86_64) AppleWebKit/537.36 (KHTML, like Gecko) Chrome/118.0.0.0 Safari/537.36" etag="q6zH0hMTfxf7laJa1I1p" version="22.0.6" type="google">
  <diagram id="R2lEEEUBdFMjLlhIrx00" name="Page-1">
    <mxGraphModel grid="1" page="1" gridSize="10" guides="1" tooltips="1" connect="1" arrows="1" fold="1" pageScale="1" pageWidth="850" pageHeight="1100" math="0" shadow="0" extFonts="Permanent Marker^https://fonts.googleapis.com/css?family=Permanent+Marker">
      <root>
        <mxCell id="0" />
        <mxCell id="1" parent="0" />
        <mxCell id="XcOHarNhl9v1NbZFJxqZ-96" value="" style="group" connectable="0" vertex="1" parent="1">
          <mxGeometry x="210" y="1050" width="360" height="225" as="geometry" />
        </mxCell>
        <mxCell id="XcOHarNhl9v1NbZFJxqZ-82" value="Recursos PortuÃ¡rios" style="rounded=1;arcSize=10;whiteSpace=wrap;html=1;align=center;" vertex="1" parent="XcOHarNhl9v1NbZFJxqZ-96">
          <mxGeometry x="130" y="80" width="100" height="40" as="geometry" />
        </mxCell>
        <mxCell id="ndQAZXRSmygiRCQ2utS4-3" style="edgeStyle=orthogonalEdgeStyle;rounded=0;orthogonalLoop=1;jettySize=auto;html=1;entryX=0;entryY=0.5;entryDx=0;entryDy=0;" edge="1" parent="XcOHarNhl9v1NbZFJxqZ-96" source="XcOHarNhl9v1NbZFJxqZ-86" target="XcOHarNhl9v1NbZFJxqZ-82">
          <mxGeometry relative="1" as="geometry" />
        </mxCell>
        <mxCell id="XcOHarNhl9v1NbZFJxqZ-86" value="rec_port_id" style="ellipse;whiteSpace=wrap;html=1;align=center;fontStyle=4;" vertex="1" parent="XcOHarNhl9v1NbZFJxqZ-96">
          <mxGeometry x="10" y="80" width="100" height="40" as="geometry" />
        </mxCell>
        <mxCell id="XcOHarNhl9v1NbZFJxqZ-93" style="edgeStyle=orthogonalEdgeStyle;rounded=0;orthogonalLoop=1;jettySize=auto;html=1;exitX=0.5;exitY=1;exitDx=0;exitDy=0;entryX=0.5;entryY=0;entryDx=0;entryDy=0;endArrow=none;endFill=0;" edge="1" parent="XcOHarNhl9v1NbZFJxqZ-96" source="XcOHarNhl9v1NbZFJxqZ-88" target="XcOHarNhl9v1NbZFJxqZ-82">
          <mxGeometry relative="1" as="geometry" />
        </mxCell>
        <mxCell id="XcOHarNhl9v1NbZFJxqZ-88" value="nome" style="ellipse;whiteSpace=wrap;html=1;align=center;" vertex="1" parent="XcOHarNhl9v1NbZFJxqZ-96">
          <mxGeometry x="160" width="100" height="40" as="geometry" />
        </mxCell>
        <mxCell id="XcOHarNhl9v1NbZFJxqZ-92" style="edgeStyle=orthogonalEdgeStyle;rounded=0;orthogonalLoop=1;jettySize=auto;html=1;exitX=0.5;exitY=1;exitDx=0;exitDy=0;entryX=1;entryY=0.5;entryDx=0;entryDy=0;endArrow=none;endFill=0;" edge="1" parent="XcOHarNhl9v1NbZFJxqZ-96" source="XcOHarNhl9v1NbZFJxqZ-89" target="XcOHarNhl9v1NbZFJxqZ-82">
          <mxGeometry relative="1" as="geometry" />
        </mxCell>
        <mxCell id="XcOHarNhl9v1NbZFJxqZ-89" value="tipo" style="ellipse;whiteSpace=wrap;html=1;align=center;" vertex="1" parent="XcOHarNhl9v1NbZFJxqZ-96">
          <mxGeometry x="260" y="15" width="100" height="40" as="geometry" />
        </mxCell>
        <mxCell id="ndQAZXRSmygiRCQ2utS4-17" style="edgeStyle=orthogonalEdgeStyle;rounded=0;orthogonalLoop=1;jettySize=auto;html=1;exitX=0.5;exitY=0;exitDx=0;exitDy=0;entryX=1;entryY=1;entryDx=0;entryDy=0;" edge="1" parent="XcOHarNhl9v1NbZFJxqZ-96" source="XcOHarNhl9v1NbZFJxqZ-90" target="XcOHarNhl9v1NbZFJxqZ-82">
          <mxGeometry relative="1" as="geometry" />
        </mxCell>
        <mxCell id="XcOHarNhl9v1NbZFJxqZ-90" value="estado" style="ellipse;whiteSpace=wrap;html=1;align=center;" vertex="1" parent="XcOHarNhl9v1NbZFJxqZ-96">
          <mxGeometry x="180" y="185" width="100" height="40" as="geometry" />
        </mxCell>
        <mxCell id="XcOHarNhl9v1NbZFJxqZ-97" style="edgeStyle=orthogonalEdgeStyle;rounded=0;orthogonalLoop=1;jettySize=auto;html=1;exitX=0;exitY=0;exitDx=0;exitDy=0;entryX=1;entryY=0.25;entryDx=0;entryDy=0;endArrow=none;endFill=0;" edge="1" parent="1" source="XcOHarNhl9v1NbZFJxqZ-81" target="XcOHarNhl9v1NbZFJxqZ-82">
          <mxGeometry relative="1" as="geometry" />
        </mxCell>
        <mxCell id="XcOHarNhl9v1NbZFJxqZ-121" value="" style="group" connectable="0" vertex="1" parent="1">
          <mxGeometry x="470" y="1390" width="430" height="280" as="geometry" />
        </mxCell>
        <mxCell id="XcOHarNhl9v1NbZFJxqZ-98" value="Empregados" style="rounded=1;arcSize=10;whiteSpace=wrap;html=1;align=center;" vertex="1" parent="XcOHarNhl9v1NbZFJxqZ-121">
          <mxGeometry x="190" y="90" width="100" height="40" as="geometry" />
        </mxCell>
        <mxCell id="XcOHarNhl9v1NbZFJxqZ-100" style="edgeStyle=orthogonalEdgeStyle;rounded=0;orthogonalLoop=1;jettySize=auto;html=1;exitX=1;exitY=1;exitDx=0;exitDy=0;entryX=0;entryY=0;entryDx=0;entryDy=0;endArrow=none;endFill=0;" edge="1" parent="XcOHarNhl9v1NbZFJxqZ-121" source="XcOHarNhl9v1NbZFJxqZ-99" target="XcOHarNhl9v1NbZFJxqZ-98">
          <mxGeometry relative="1" as="geometry" />
        </mxCell>
        <mxCell id="XcOHarNhl9v1NbZFJxqZ-99" value="empregado_id" style="ellipse;whiteSpace=wrap;html=1;align=center;fontStyle=4;" vertex="1" parent="XcOHarNhl9v1NbZFJxqZ-121">
          <mxGeometry x="60" y="10" width="100" height="40" as="geometry" />
        </mxCell>
        <mxCell id="XcOHarNhl9v1NbZFJxqZ-101" value="nome" style="ellipse;whiteSpace=wrap;html=1;align=center;" vertex="1" parent="XcOHarNhl9v1NbZFJxqZ-121">
          <mxGeometry x="230" width="100" height="40" as="geometry" />
        </mxCell>
        <mxCell id="XcOHarNhl9v1NbZFJxqZ-103" value="nacionalidade" style="ellipse;whiteSpace=wrap;html=1;align=center;" vertex="1" parent="XcOHarNhl9v1NbZFJxqZ-121">
          <mxGeometry x="320" y="60" width="100" height="40" as="geometry" />
        </mxCell>
        <mxCell id="XcOHarNhl9v1NbZFJxqZ-104" value="email" style="ellipse;whiteSpace=wrap;html=1;align=center;" vertex="1" parent="XcOHarNhl9v1NbZFJxqZ-121">
          <mxGeometry x="330" y="130" width="100" height="40" as="geometry" />
        </mxCell>
        <mxCell id="XcOHarNhl9v1NbZFJxqZ-105" value="telefone" style="ellipse;whiteSpace=wrap;html=1;align=center;" vertex="1" parent="XcOHarNhl9v1NbZFJxqZ-121">
          <mxGeometry x="320" y="210" width="100" height="40" as="geometry" />
        </mxCell>
        <mxCell id="XcOHarNhl9v1NbZFJxqZ-106" value="dbo" style="ellipse;whiteSpace=wrap;html=1;align=center;" vertex="1" parent="XcOHarNhl9v1NbZFJxqZ-121">
          <mxGeometry x="180" y="240" width="100" height="40" as="geometry" />
        </mxCell>
        <mxCell id="XcOHarNhl9v1NbZFJxqZ-107" value="genero" style="ellipse;whiteSpace=wrap;html=1;align=center;" vertex="1" parent="XcOHarNhl9v1NbZFJxqZ-121">
          <mxGeometry x="70" y="230" width="100" height="40" as="geometry" />
        </mxCell>
        <mxCell id="XcOHarNhl9v1NbZFJxqZ-108" value="cpf" style="ellipse;whiteSpace=wrap;html=1;align=center;" vertex="1" parent="XcOHarNhl9v1NbZFJxqZ-121">
          <mxGeometry y="180" width="100" height="40" as="geometry" />
        </mxCell>
        <mxCell id="XcOHarNhl9v1NbZFJxqZ-109" value="funcao" style="ellipse;whiteSpace=wrap;html=1;align=center;" vertex="1" parent="XcOHarNhl9v1NbZFJxqZ-121">
          <mxGeometry x="10" y="120" width="100" height="40" as="geometry" />
        </mxCell>
        <mxCell id="XcOHarNhl9v1NbZFJxqZ-110" value="" style="endArrow=none;html=1;rounded=0;exitX=0.5;exitY=0;exitDx=0;exitDy=0;entryX=0;entryY=1;entryDx=0;entryDy=0;" edge="1" parent="XcOHarNhl9v1NbZFJxqZ-121" source="XcOHarNhl9v1NbZFJxqZ-98" target="XcOHarNhl9v1NbZFJxqZ-101">
          <mxGeometry width="50" height="50" relative="1" as="geometry">
            <mxPoint x="290" y="30" as="sourcePoint" />
            <mxPoint x="340" y="-20" as="targetPoint" />
          </mxGeometry>
        </mxCell>
        <mxCell id="XcOHarNhl9v1NbZFJxqZ-113" value="" style="endArrow=none;html=1;rounded=0;exitX=1;exitY=0;exitDx=0;exitDy=0;entryX=0.004;entryY=0.661;entryDx=0;entryDy=0;entryPerimeter=0;" edge="1" parent="XcOHarNhl9v1NbZFJxqZ-121" source="XcOHarNhl9v1NbZFJxqZ-98" target="XcOHarNhl9v1NbZFJxqZ-103">
          <mxGeometry width="50" height="50" relative="1" as="geometry">
            <mxPoint x="290" y="30" as="sourcePoint" />
            <mxPoint x="340" y="-20" as="targetPoint" />
          </mxGeometry>
        </mxCell>
        <mxCell id="XcOHarNhl9v1NbZFJxqZ-115" value="" style="endArrow=none;html=1;rounded=0;exitX=1;exitY=0.5;exitDx=0;exitDy=0;entryX=0;entryY=0;entryDx=0;entryDy=0;" edge="1" parent="XcOHarNhl9v1NbZFJxqZ-121" source="XcOHarNhl9v1NbZFJxqZ-98" target="XcOHarNhl9v1NbZFJxqZ-104">
          <mxGeometry width="50" height="50" relative="1" as="geometry">
            <mxPoint x="300" y="100" as="sourcePoint" />
            <mxPoint x="330" y="96" as="targetPoint" />
          </mxGeometry>
        </mxCell>
        <mxCell id="XcOHarNhl9v1NbZFJxqZ-116" value="" style="endArrow=none;html=1;rounded=0;exitX=1;exitY=0.5;exitDx=0;exitDy=0;entryX=0;entryY=0;entryDx=0;entryDy=0;" edge="1" parent="XcOHarNhl9v1NbZFJxqZ-121" target="XcOHarNhl9v1NbZFJxqZ-105">
          <mxGeometry width="50" height="50" relative="1" as="geometry">
            <mxPoint x="290" y="130" as="sourcePoint" />
            <mxPoint x="345" y="156" as="targetPoint" />
          </mxGeometry>
        </mxCell>
        <mxCell id="XcOHarNhl9v1NbZFJxqZ-117" value="" style="endArrow=none;html=1;rounded=0;exitX=1;exitY=0.5;exitDx=0;exitDy=0;entryX=0.5;entryY=0;entryDx=0;entryDy=0;" edge="1" parent="XcOHarNhl9v1NbZFJxqZ-121" target="XcOHarNhl9v1NbZFJxqZ-106">
          <mxGeometry width="50" height="50" relative="1" as="geometry">
            <mxPoint x="257.5" y="130" as="sourcePoint" />
            <mxPoint x="302.5" y="216" as="targetPoint" />
          </mxGeometry>
        </mxCell>
        <mxCell id="XcOHarNhl9v1NbZFJxqZ-118" value="" style="endArrow=none;html=1;rounded=0;exitX=1;exitY=0.5;exitDx=0;exitDy=0;entryX=1;entryY=0;entryDx=0;entryDy=0;" edge="1" parent="XcOHarNhl9v1NbZFJxqZ-121" target="XcOHarNhl9v1NbZFJxqZ-107">
          <mxGeometry width="50" height="50" relative="1" as="geometry">
            <mxPoint x="217.5" y="130" as="sourcePoint" />
            <mxPoint x="200" y="240" as="targetPoint" />
          </mxGeometry>
        </mxCell>
        <mxCell id="XcOHarNhl9v1NbZFJxqZ-119" value="" style="endArrow=none;html=1;rounded=0;exitX=1;exitY=0.5;exitDx=0;exitDy=0;entryX=1;entryY=0.5;entryDx=0;entryDy=0;" edge="1" parent="XcOHarNhl9v1NbZFJxqZ-121" target="XcOHarNhl9v1NbZFJxqZ-108">
          <mxGeometry width="50" height="50" relative="1" as="geometry">
            <mxPoint x="190" y="130" as="sourcePoint" />
            <mxPoint x="124.5" y="229" as="targetPoint" />
          </mxGeometry>
        </mxCell>
        <mxCell id="XcOHarNhl9v1NbZFJxqZ-120" value="" style="endArrow=none;html=1;rounded=0;exitX=1;exitY=0.5;exitDx=0;exitDy=0;entryX=1;entryY=0.5;entryDx=0;entryDy=0;" edge="1" parent="XcOHarNhl9v1NbZFJxqZ-121" target="XcOHarNhl9v1NbZFJxqZ-109">
          <mxGeometry width="50" height="50" relative="1" as="geometry">
            <mxPoint x="190" y="110" as="sourcePoint" />
            <mxPoint x="100" y="180" as="targetPoint" />
          </mxGeometry>
        </mxCell>
        <mxCell id="XcOHarNhl9v1NbZFJxqZ-122" style="edgeStyle=orthogonalEdgeStyle;rounded=0;orthogonalLoop=1;jettySize=auto;html=1;exitX=0.5;exitY=1;exitDx=0;exitDy=0;entryX=0.928;entryY=-0.089;entryDx=0;entryDy=0;entryPerimeter=0;endArrow=none;endFill=0;" edge="1" parent="1" source="XcOHarNhl9v1NbZFJxqZ-83" target="XcOHarNhl9v1NbZFJxqZ-98">
          <mxGeometry relative="1" as="geometry">
            <Array as="points">
              <mxPoint x="935" y="1440" />
              <mxPoint x="753" y="1440" />
            </Array>
          </mxGeometry>
        </mxCell>
        <mxCell id="q85OYb89AAFOKAMzmCl3-6" style="edgeStyle=orthogonalEdgeStyle;rounded=0;orthogonalLoop=1;jettySize=auto;html=1;exitX=0.75;exitY=1;exitDx=0;exitDy=0;entryX=1;entryY=0.5;entryDx=0;entryDy=0;endArrow=classic;endFill=1;" edge="1" parent="1" source="XcOHarNhl9v1NbZFJxqZ-22" target="q85OYb89AAFOKAMzmCl3-5">
          <mxGeometry relative="1" as="geometry" />
        </mxCell>
        <mxCell id="q85OYb89AAFOKAMzmCl3-28" style="edgeStyle=orthogonalEdgeStyle;rounded=0;orthogonalLoop=1;jettySize=auto;html=1;exitX=1;exitY=0;exitDx=0;exitDy=0;entryX=0;entryY=0.5;entryDx=0;entryDy=0;strokeWidth=3;" edge="1" parent="1" source="XcOHarNhl9v1NbZFJxqZ-22" target="q85OYb89AAFOKAMzmCl3-27">
          <mxGeometry relative="1" as="geometry">
            <Array as="points">
              <mxPoint x="735" y="250" />
              <mxPoint x="1130" y="250" />
            </Array>
          </mxGeometry>
        </mxCell>
        <mxCell id="q85OYb89AAFOKAMzmCl3-40" style="edgeStyle=orthogonalEdgeStyle;rounded=0;orthogonalLoop=1;jettySize=auto;html=1;exitX=1;exitY=0.5;exitDx=0;exitDy=0;entryX=0;entryY=0.5;entryDx=0;entryDy=0;endArrow=none;endFill=0;" edge="1" parent="1" source="XcOHarNhl9v1NbZFJxqZ-22" target="q85OYb89AAFOKAMzmCl3-37">
          <mxGeometry relative="1" as="geometry">
            <Array as="points">
              <mxPoint x="615" y="360" />
              <mxPoint x="803" y="360" />
              <mxPoint x="803" y="560" />
            </Array>
          </mxGeometry>
        </mxCell>
        <mxCell id="q85OYb89AAFOKAMzmCl3-45" style="edgeStyle=orthogonalEdgeStyle;rounded=0;orthogonalLoop=1;jettySize=auto;html=1;exitX=0.5;exitY=1;exitDx=0;exitDy=0;entryX=0.5;entryY=0;entryDx=0;entryDy=0;endArrow=none;endFill=0;" edge="1" parent="1" source="XcOHarNhl9v1NbZFJxqZ-22" target="q85OYb89AAFOKAMzmCl3-41">
          <mxGeometry relative="1" as="geometry" />
        </mxCell>
        <mxCell id="XcOHarNhl9v1NbZFJxqZ-22" value="EmbarcaÃ§Ãµes" style="rounded=1;arcSize=10;whiteSpace=wrap;html=1;align=center;" vertex="1" parent="1">
          <mxGeometry x="515" y="310" width="100" height="40" as="geometry" />
        </mxCell>
        <mxCell id="XcOHarNhl9v1NbZFJxqZ-23" value="emb_id" style="ellipse;whiteSpace=wrap;html=1;align=center;fontStyle=4;" vertex="1" parent="1">
          <mxGeometry x="405" y="200" width="100" height="40" as="geometry" />
        </mxCell>
        <mxCell id="ndQAZXRSmygiRCQ2utS4-6" style="edgeStyle=orthogonalEdgeStyle;rounded=0;orthogonalLoop=1;jettySize=auto;html=1;exitX=0.5;exitY=1;exitDx=0;exitDy=0;entryX=0.5;entryY=0;entryDx=0;entryDy=0;" edge="1" parent="1" source="XcOHarNhl9v1NbZFJxqZ-24" target="XcOHarNhl9v1NbZFJxqZ-22">
          <mxGeometry relative="1" as="geometry" />
        </mxCell>
        <mxCell id="XcOHarNhl9v1NbZFJxqZ-24" value="nome" style="ellipse;whiteSpace=wrap;html=1;align=center;" vertex="1" parent="1">
          <mxGeometry x="515" y="180" width="100" height="40" as="geometry" />
        </mxCell>
        <mxCell id="ndQAZXRSmygiRCQ2utS4-4" style="edgeStyle=orthogonalEdgeStyle;rounded=0;orthogonalLoop=1;jettySize=auto;html=1;exitX=1;exitY=0.5;exitDx=0;exitDy=0;entryX=0;entryY=0.5;entryDx=0;entryDy=0;" edge="1" parent="1" source="XcOHarNhl9v1NbZFJxqZ-25" target="XcOHarNhl9v1NbZFJxqZ-22">
          <mxGeometry relative="1" as="geometry" />
        </mxCell>
        <mxCell id="XcOHarNhl9v1NbZFJxqZ-25" value="IMO" style="ellipse;whiteSpace=wrap;html=1;align=center;" vertex="1" parent="1">
          <mxGeometry x="380" y="280" width="100" height="40" as="geometry" />
        </mxCell>
        <mxCell id="XcOHarNhl9v1NbZFJxqZ-34" style="edgeStyle=orthogonalEdgeStyle;rounded=0;orthogonalLoop=1;jettySize=auto;html=1;exitX=0;exitY=0.5;exitDx=0;exitDy=0;entryX=1;entryY=0.25;entryDx=0;entryDy=0;endArrow=none;endFill=0;" edge="1" parent="1" source="XcOHarNhl9v1NbZFJxqZ-27" target="XcOHarNhl9v1NbZFJxqZ-22">
          <mxGeometry relative="1" as="geometry" />
        </mxCell>
        <mxCell id="XcOHarNhl9v1NbZFJxqZ-27" value="bandeira" style="ellipse;whiteSpace=wrap;html=1;align=center;" vertex="1" parent="1">
          <mxGeometry x="720" y="200" width="100" height="40" as="geometry" />
        </mxCell>
        <mxCell id="XcOHarNhl9v1NbZFJxqZ-35" style="edgeStyle=orthogonalEdgeStyle;rounded=0;orthogonalLoop=1;jettySize=auto;html=1;exitX=0;exitY=0.5;exitDx=0;exitDy=0;entryX=1;entryY=0.75;entryDx=0;entryDy=0;endArrow=none;endFill=0;" edge="1" parent="1" source="XcOHarNhl9v1NbZFJxqZ-29" target="XcOHarNhl9v1NbZFJxqZ-22">
          <mxGeometry relative="1" as="geometry" />
        </mxCell>
        <mxCell id="XcOHarNhl9v1NbZFJxqZ-29" value="tipo" style="ellipse;whiteSpace=wrap;html=1;align=center;" vertex="1" parent="1">
          <mxGeometry x="790" y="240" width="100" height="40" as="geometry" />
        </mxCell>
        <mxCell id="XcOHarNhl9v1NbZFJxqZ-36" style="edgeStyle=orthogonalEdgeStyle;rounded=0;orthogonalLoop=1;jettySize=auto;html=1;exitX=0.5;exitY=0;exitDx=0;exitDy=0;entryX=0.75;entryY=1;entryDx=0;entryDy=0;endArrow=none;endFill=0;" edge="1" parent="1" source="XcOHarNhl9v1NbZFJxqZ-30" target="XcOHarNhl9v1NbZFJxqZ-22">
          <mxGeometry relative="1" as="geometry" />
        </mxCell>
        <mxCell id="XcOHarNhl9v1NbZFJxqZ-30" value="posicao" style="ellipse;whiteSpace=wrap;html=1;align=center;" vertex="1" parent="1">
          <mxGeometry x="790" y="320" width="100" height="40" as="geometry" />
        </mxCell>
        <mxCell id="XcOHarNhl9v1NbZFJxqZ-39" value="estado" style="ellipse;whiteSpace=wrap;html=1;align=center;" vertex="1" parent="1">
          <mxGeometry x="470" y="490" width="100" height="40" as="geometry" />
        </mxCell>
        <mxCell id="XcOHarNhl9v1NbZFJxqZ-40" style="edgeStyle=orthogonalEdgeStyle;rounded=0;orthogonalLoop=1;jettySize=auto;html=1;exitX=0.5;exitY=0;exitDx=0;exitDy=0;entryX=0.43;entryY=1;entryDx=0;entryDy=0;entryPerimeter=0;endArrow=none;endFill=0;" edge="1" parent="1" source="XcOHarNhl9v1NbZFJxqZ-39" target="XcOHarNhl9v1NbZFJxqZ-22">
          <mxGeometry relative="1" as="geometry" />
        </mxCell>
        <mxCell id="XcOHarNhl9v1NbZFJxqZ-41" value="comprimento" style="ellipse;whiteSpace=wrap;html=1;align=center;" vertex="1" parent="1">
          <mxGeometry x="375" y="420" width="100" height="40" as="geometry" />
        </mxCell>
        <mxCell id="XcOHarNhl9v1NbZFJxqZ-43" style="edgeStyle=orthogonalEdgeStyle;rounded=0;orthogonalLoop=1;jettySize=auto;html=1;exitX=0.5;exitY=0;exitDx=0;exitDy=0;entryX=0.59;entryY=1;entryDx=0;entryDy=0;entryPerimeter=0;endArrow=none;endFill=0;" edge="1" parent="1" source="XcOHarNhl9v1NbZFJxqZ-41" target="XcOHarNhl9v1NbZFJxqZ-22">
          <mxGeometry relative="1" as="geometry" />
        </mxCell>
        <mxCell id="XcOHarNhl9v1NbZFJxqZ-45" style="edgeStyle=orthogonalEdgeStyle;rounded=0;orthogonalLoop=1;jettySize=auto;html=1;exitX=0.5;exitY=0;exitDx=0;exitDy=0;entryX=1;entryY=1;entryDx=0;entryDy=0;endArrow=none;endFill=0;" edge="1" parent="1" source="XcOHarNhl9v1NbZFJxqZ-44" target="XcOHarNhl9v1NbZFJxqZ-22">
          <mxGeometry relative="1" as="geometry" />
        </mxCell>
        <mxCell id="XcOHarNhl9v1NbZFJxqZ-44" value="largura" style="ellipse;whiteSpace=wrap;html=1;align=center;" vertex="1" parent="1">
          <mxGeometry x="710" y="490" width="100" height="40" as="geometry" />
        </mxCell>
        <mxCell id="XcOHarNhl9v1NbZFJxqZ-47" style="edgeStyle=orthogonalEdgeStyle;rounded=0;orthogonalLoop=1;jettySize=auto;html=1;exitX=0.5;exitY=0;exitDx=0;exitDy=0;entryX=1;entryY=1;entryDx=0;entryDy=0;endArrow=none;endFill=0;" edge="1" parent="1" source="XcOHarNhl9v1NbZFJxqZ-46" target="XcOHarNhl9v1NbZFJxqZ-22">
          <mxGeometry relative="1" as="geometry" />
        </mxCell>
        <mxCell id="XcOHarNhl9v1NbZFJxqZ-46" value="calado" style="ellipse;whiteSpace=wrap;html=1;align=center;" vertex="1" parent="1">
          <mxGeometry x="790" y="450" width="100" height="40" as="geometry" />
        </mxCell>
        <mxCell id="XcOHarNhl9v1NbZFJxqZ-49" style="edgeStyle=orthogonalEdgeStyle;rounded=0;orthogonalLoop=1;jettySize=auto;html=1;exitX=0;exitY=0;exitDx=0;exitDy=0;entryX=0.75;entryY=1;entryDx=0;entryDy=0;endArrow=none;endFill=0;" edge="1" parent="1" source="XcOHarNhl9v1NbZFJxqZ-48" target="XcOHarNhl9v1NbZFJxqZ-22">
          <mxGeometry relative="1" as="geometry" />
        </mxCell>
        <mxCell id="XcOHarNhl9v1NbZFJxqZ-48" value="tonelagem" style="ellipse;whiteSpace=wrap;html=1;align=center;" vertex="1" parent="1">
          <mxGeometry x="860" y="380" width="100" height="40" as="geometry" />
        </mxCell>
        <mxCell id="q85OYb89AAFOKAMzmCl3-5" value="tem" style="shape=rhombus;perimeter=rhombusPerimeter;whiteSpace=wrap;html=1;align=center;" vertex="1" parent="1">
          <mxGeometry x="410" y="695" width="120" height="60" as="geometry" />
        </mxCell>
        <mxCell id="XcOHarNhl9v1NbZFJxqZ-1" value="BerÃ§os de AtracaÃ§Ã£o" style="rounded=1;arcSize=10;whiteSpace=wrap;html=1;align=center;" vertex="1" parent="1">
          <mxGeometry x="170" y="430" width="100" height="40" as="geometry" />
        </mxCell>
        <mxCell id="XcOHarNhl9v1NbZFJxqZ-13" style="edgeStyle=orthogonalEdgeStyle;rounded=0;orthogonalLoop=1;jettySize=auto;html=1;exitX=1;exitY=1;exitDx=0;exitDy=0;entryX=0.25;entryY=0;entryDx=0;entryDy=0;endArrow=none;endFill=0;" edge="1" parent="1" source="XcOHarNhl9v1NbZFJxqZ-2" target="XcOHarNhl9v1NbZFJxqZ-1">
          <mxGeometry relative="1" as="geometry" />
        </mxCell>
        <mxCell id="XcOHarNhl9v1NbZFJxqZ-2" value="ba_id" style="ellipse;whiteSpace=wrap;html=1;align=center;fontStyle=4;" vertex="1" parent="1">
          <mxGeometry x="120" y="360" width="100" height="40" as="geometry" />
        </mxCell>
        <mxCell id="XcOHarNhl9v1NbZFJxqZ-4" value="estado" style="ellipse;whiteSpace=wrap;html=1;align=center;" vertex="1" parent="1">
          <mxGeometry x="230" y="360" width="100" height="40" as="geometry" />
        </mxCell>
        <mxCell id="XcOHarNhl9v1NbZFJxqZ-6" value="Bills of Landing" style="rounded=1;arcSize=10;whiteSpace=wrap;html=1;align=center;" vertex="1" parent="1">
          <mxGeometry x="170" y="620" width="100" height="40" as="geometry" />
        </mxCell>
        <mxCell id="XcOHarNhl9v1NbZFJxqZ-8" style="edgeStyle=orthogonalEdgeStyle;rounded=0;orthogonalLoop=1;jettySize=auto;html=1;exitX=0.5;exitY=0;exitDx=0;exitDy=0;entryX=0.75;entryY=1;entryDx=0;entryDy=0;endArrow=none;endFill=0;" edge="1" parent="1" source="XcOHarNhl9v1NbZFJxqZ-7" target="XcOHarNhl9v1NbZFJxqZ-6">
          <mxGeometry relative="1" as="geometry" />
        </mxCell>
        <mxCell id="XcOHarNhl9v1NbZFJxqZ-7" value="liberada_em" style="ellipse;whiteSpace=wrap;html=1;align=center;" vertex="1" parent="1">
          <mxGeometry x="160" y="680" width="100" height="40" as="geometry" />
        </mxCell>
        <mxCell id="XcOHarNhl9v1NbZFJxqZ-9" value="Ocupada" style="shape=rhombus;perimeter=rhombusPerimeter;whiteSpace=wrap;html=1;align=center;" vertex="1" parent="1">
          <mxGeometry x="160" y="510" width="120" height="60" as="geometry" />
        </mxCell>
        <mxCell id="XcOHarNhl9v1NbZFJxqZ-20" style="edgeStyle=orthogonalEdgeStyle;rounded=0;orthogonalLoop=1;jettySize=auto;html=1;exitX=0.5;exitY=1;exitDx=0;exitDy=0;entryX=0.5;entryY=0;entryDx=0;entryDy=0;endArrow=none;endFill=0;" edge="1" parent="1" source="XcOHarNhl9v1NbZFJxqZ-1" target="XcOHarNhl9v1NbZFJxqZ-9">
          <mxGeometry relative="1" as="geometry" />
        </mxCell>
        <mxCell id="XcOHarNhl9v1NbZFJxqZ-19" style="edgeStyle=orthogonalEdgeStyle;rounded=0;orthogonalLoop=1;jettySize=auto;html=1;exitX=0.5;exitY=0;exitDx=0;exitDy=0;entryX=0.5;entryY=1;entryDx=0;entryDy=0;" edge="1" parent="1" source="XcOHarNhl9v1NbZFJxqZ-6" target="XcOHarNhl9v1NbZFJxqZ-9">
          <mxGeometry relative="1" as="geometry" />
        </mxCell>
        <mxCell id="XcOHarNhl9v1NbZFJxqZ-14" style="edgeStyle=orthogonalEdgeStyle;rounded=0;orthogonalLoop=1;jettySize=auto;html=1;exitX=0.5;exitY=1;exitDx=0;exitDy=0;entryX=0.667;entryY=-0.004;entryDx=0;entryDy=0;entryPerimeter=0;endArrow=none;endFill=0;" edge="1" parent="1" source="XcOHarNhl9v1NbZFJxqZ-4" target="XcOHarNhl9v1NbZFJxqZ-1">
          <mxGeometry relative="1" as="geometry" />
        </mxCell>
        <mxCell id="XcOHarNhl9v1NbZFJxqZ-16" style="edgeStyle=orthogonalEdgeStyle;rounded=0;orthogonalLoop=1;jettySize=auto;html=1;exitX=0.5;exitY=0;exitDx=0;exitDy=0;entryX=0;entryY=0.75;entryDx=0;entryDy=0;endArrow=none;endFill=0;" edge="1" parent="1" source="XcOHarNhl9v1NbZFJxqZ-15" target="XcOHarNhl9v1NbZFJxqZ-6">
          <mxGeometry relative="1" as="geometry" />
        </mxCell>
        <mxCell id="XcOHarNhl9v1NbZFJxqZ-15" value="&lt;span style=&quot;border-bottom: 1px dotted&quot;&gt;bl_id&lt;/span&gt;" style="ellipse;whiteSpace=wrap;html=1;align=center;" vertex="1" parent="1">
          <mxGeometry x="50" y="680" width="100" height="40" as="geometry" />
        </mxCell>
        <mxCell id="XcOHarNhl9v1NbZFJxqZ-18" style="edgeStyle=orthogonalEdgeStyle;rounded=0;orthogonalLoop=1;jettySize=auto;html=1;exitX=0;exitY=0.5;exitDx=0;exitDy=0;entryX=1;entryY=1;entryDx=0;entryDy=0;endArrow=none;endFill=0;startArrow=classic;startFill=1;strokeWidth=3;" edge="1" parent="1" source="q85OYb89AAFOKAMzmCl3-5" target="XcOHarNhl9v1NbZFJxqZ-6">
          <mxGeometry relative="1" as="geometry">
            <mxPoint x="330" y="680" as="sourcePoint" />
          </mxGeometry>
        </mxCell>
        <mxCell id="q85OYb89AAFOKAMzmCl3-19" value="Comandante" style="shape=rhombus;perimeter=rhombusPerimeter;whiteSpace=wrap;html=1;align=center;" vertex="1" parent="1">
          <mxGeometry x="870" y="755" width="120" height="60" as="geometry" />
        </mxCell>
        <mxCell id="q85OYb89AAFOKAMzmCl3-20" style="edgeStyle=orthogonalEdgeStyle;rounded=0;orthogonalLoop=1;jettySize=auto;html=1;exitX=0.5;exitY=0;exitDx=0;exitDy=0;entryX=0.862;entryY=1.017;entryDx=0;entryDy=0;entryPerimeter=0;endArrow=none;endFill=0;startArrow=classic;startFill=1;strokeWidth=3;" edge="1" parent="1" source="q85OYb89AAFOKAMzmCl3-19" target="XcOHarNhl9v1NbZFJxqZ-22">
          <mxGeometry relative="1" as="geometry" />
        </mxCell>
        <mxCell id="q85OYb89AAFOKAMzmCl3-29" style="edgeStyle=orthogonalEdgeStyle;rounded=0;orthogonalLoop=1;jettySize=auto;html=1;exitX=0.25;exitY=1;exitDx=0;exitDy=0;entryX=1;entryY=0.5;entryDx=0;entryDy=0;endArrow=none;endFill=0;" edge="1" parent="1" source="q85OYb89AAFOKAMzmCl3-22" target="q85OYb89AAFOKAMzmCl3-27">
          <mxGeometry relative="1" as="geometry" />
        </mxCell>
        <mxCell id="q85OYb89AAFOKAMzmCl3-22" value="Empresas" style="rounded=1;arcSize=10;whiteSpace=wrap;html=1;align=center;" vertex="1" parent="1">
          <mxGeometry x="1310" y="200" width="100" height="40" as="geometry" />
        </mxCell>
        <mxCell id="q85OYb89AAFOKAMzmCl3-26" style="edgeStyle=orthogonalEdgeStyle;rounded=0;orthogonalLoop=1;jettySize=auto;html=1;exitX=0;exitY=0;exitDx=0;exitDy=0;endArrow=none;endFill=0;" edge="1" parent="1" source="q85OYb89AAFOKAMzmCl3-23" target="q85OYb89AAFOKAMzmCl3-22">
          <mxGeometry relative="1" as="geometry" />
        </mxCell>
        <mxCell id="q85OYb89AAFOKAMzmCl3-23" value="nome" style="ellipse;whiteSpace=wrap;html=1;align=center;" vertex="1" parent="1">
          <mxGeometry x="1440" y="260" width="100" height="40" as="geometry" />
        </mxCell>
        <mxCell id="q85OYb89AAFOKAMzmCl3-25" style="edgeStyle=orthogonalEdgeStyle;rounded=0;orthogonalLoop=1;jettySize=auto;html=1;exitX=1;exitY=1;exitDx=0;exitDy=0;entryX=0.25;entryY=0;entryDx=0;entryDy=0;endArrow=none;endFill=0;" edge="1" parent="1" source="q85OYb89AAFOKAMzmCl3-24" target="q85OYb89AAFOKAMzmCl3-22">
          <mxGeometry relative="1" as="geometry" />
        </mxCell>
        <mxCell id="q85OYb89AAFOKAMzmCl3-24" value="empresa_id" style="ellipse;whiteSpace=wrap;html=1;align=center;fontStyle=4;" vertex="1" parent="1">
          <mxGeometry x="1210" y="110" width="100" height="40" as="geometry" />
        </mxCell>
        <mxCell id="q85OYb89AAFOKAMzmCl3-27" value="tem" style="shape=rhombus;perimeter=rhombusPerimeter;whiteSpace=wrap;html=1;align=center;" vertex="1" parent="1">
          <mxGeometry x="1130" y="260" width="120" height="60" as="geometry" />
        </mxCell>
        <mxCell id="q85OYb89AAFOKAMzmCl3-33" style="edgeStyle=orthogonalEdgeStyle;rounded=0;orthogonalLoop=1;jettySize=auto;html=1;exitX=1;exitY=0.5;exitDx=0;exitDy=0;entryX=0;entryY=0.5;entryDx=0;entryDy=0;endArrow=none;endFill=0;" edge="1" parent="1" source="q85OYb89AAFOKAMzmCl3-30" target="q85OYb89AAFOKAMzmCl3-32">
          <mxGeometry relative="1" as="geometry" />
        </mxCell>
        <mxCell id="q85OYb89AAFOKAMzmCl3-35" style="edgeStyle=orthogonalEdgeStyle;rounded=0;orthogonalLoop=1;jettySize=auto;html=1;exitX=0.5;exitY=1;exitDx=0;exitDy=0;entryX=0;entryY=0;entryDx=0;entryDy=0;endArrow=none;endFill=0;" edge="1" parent="1" source="q85OYb89AAFOKAMzmCl3-30" target="q85OYb89AAFOKAMzmCl3-34">
          <mxGeometry relative="1" as="geometry" />
        </mxCell>
        <mxCell id="q85OYb89AAFOKAMzmCl3-30" value="Ã um" style="triangle;whiteSpace=wrap;html=1;rotation=0;" vertex="1" parent="1">
          <mxGeometry x="1030" y="370" width="60" height="80" as="geometry" />
        </mxCell>
        <mxCell id="q85OYb89AAFOKAMzmCl3-31" style="edgeStyle=orthogonalEdgeStyle;rounded=0;orthogonalLoop=1;jettySize=auto;html=1;exitX=1;exitY=0.5;exitDx=0;exitDy=0;entryX=-0.036;entryY=-0.013;entryDx=0;entryDy=0;entryPerimeter=0;" edge="1" parent="1" source="XcOHarNhl9v1NbZFJxqZ-22" target="q85OYb89AAFOKAMzmCl3-30">
          <mxGeometry relative="1" as="geometry" />
        </mxCell>
        <mxCell id="q85OYb89AAFOKAMzmCl3-32" value="Embarcacao com carga propria" style="rounded=1;arcSize=10;whiteSpace=wrap;html=1;align=center;" vertex="1" parent="1">
          <mxGeometry x="1220" y="340" width="100" height="40" as="geometry" />
        </mxCell>
        <mxCell id="q85OYb89AAFOKAMzmCl3-34" value="Embarcacao com carga de terceiros" style="rounded=1;arcSize=10;whiteSpace=wrap;html=1;align=center;" vertex="1" parent="1">
          <mxGeometry x="1150" y="470" width="100" height="40" as="geometry" />
        </mxCell>
        <mxCell id="q85OYb89AAFOKAMzmCl3-36" style="edgeStyle=orthogonalEdgeStyle;rounded=0;orthogonalLoop=1;jettySize=auto;html=1;exitX=1;exitY=0.5;exitDx=0;exitDy=0;entryX=0.395;entryY=0.996;entryDx=0;entryDy=0;entryPerimeter=0;strokeWidth=3;" edge="1" parent="1" source="q85OYb89AAFOKAMzmCl3-34" target="q85OYb89AAFOKAMzmCl3-22">
          <mxGeometry relative="1" as="geometry" />
        </mxCell>
        <mxCell id="q85OYb89AAFOKAMzmCl3-37" value="Tripulantes" style="shape=rhombus;perimeter=rhombusPerimeter;whiteSpace=wrap;html=1;align=center;" vertex="1" parent="1">
          <mxGeometry x="990" y="530" width="120" height="60" as="geometry" />
        </mxCell>
        <mxCell id="q85OYb89AAFOKAMzmCl3-39" style="edgeStyle=orthogonalEdgeStyle;rounded=0;orthogonalLoop=1;jettySize=auto;html=1;exitX=0;exitY=0;exitDx=0;exitDy=0;entryX=1;entryY=0.5;entryDx=0;entryDy=0;strokeWidth=3;" edge="1" parent="1" source="XcOHarNhl9v1NbZFJxqZ-52" target="q85OYb89AAFOKAMzmCl3-37">
          <mxGeometry relative="1" as="geometry">
            <Array as="points">
              <mxPoint x="1360" y="580" />
              <mxPoint x="1120" y="580" />
            </Array>
          </mxGeometry>
        </mxCell>
        <mxCell id="q85OYb89AAFOKAMzmCl3-48" style="edgeStyle=orthogonalEdgeStyle;rounded=0;orthogonalLoop=1;jettySize=auto;html=1;exitX=0.25;exitY=1;exitDx=0;exitDy=0;entryX=1;entryY=0.5;entryDx=0;entryDy=0;" edge="1" parent="1" source="XcOHarNhl9v1NbZFJxqZ-52" target="q85OYb89AAFOKAMzmCl3-19">
          <mxGeometry relative="1" as="geometry">
            <Array as="points">
              <mxPoint x="1360" y="640" />
              <mxPoint x="1360" y="785" />
            </Array>
          </mxGeometry>
        </mxCell>
        <mxCell id="q85OYb89AAFOKAMzmCl3-52" style="edgeStyle=orthogonalEdgeStyle;rounded=0;orthogonalLoop=1;jettySize=auto;html=1;exitX=0.25;exitY=1;exitDx=0;exitDy=0;entryX=0.5;entryY=0;entryDx=0;entryDy=0;endArrow=none;endFill=0;" edge="1" parent="1" source="XcOHarNhl9v1NbZFJxqZ-52" target="q85OYb89AAFOKAMzmCl3-50">
          <mxGeometry relative="1" as="geometry" />
        </mxCell>
        <mxCell id="XcOHarNhl9v1NbZFJxqZ-52" value="Tripulantes" style="rounded=1;arcSize=10;whiteSpace=wrap;html=1;align=center;" vertex="1" parent="1">
          <mxGeometry x="1360" y="600" width="100" height="40" as="geometry" />
        </mxCell>
        <mxCell id="XcOHarNhl9v1NbZFJxqZ-54" style="edgeStyle=orthogonalEdgeStyle;rounded=0;orthogonalLoop=1;jettySize=auto;html=1;exitX=1;exitY=0.5;exitDx=0;exitDy=0;entryX=0;entryY=1;entryDx=0;entryDy=0;endArrow=none;endFill=0;" edge="1" parent="1" source="q85OYb89AAFOKAMzmCl3-54" target="XcOHarNhl9v1NbZFJxqZ-52">
          <mxGeometry relative="1" as="geometry">
            <mxPoint x="1300" y="675" as="sourcePoint" />
          </mxGeometry>
        </mxCell>
        <mxCell id="XcOHarNhl9v1NbZFJxqZ-59" style="edgeStyle=orthogonalEdgeStyle;rounded=0;orthogonalLoop=1;jettySize=auto;html=1;exitX=0.5;exitY=0;exitDx=0;exitDy=0;entryX=0.5;entryY=1;entryDx=0;entryDy=0;endArrow=none;endFill=0;" edge="1" parent="1" source="XcOHarNhl9v1NbZFJxqZ-55" target="XcOHarNhl9v1NbZFJxqZ-52">
          <mxGeometry relative="1" as="geometry" />
        </mxCell>
        <mxCell id="XcOHarNhl9v1NbZFJxqZ-55" value="nome" style="ellipse;whiteSpace=wrap;html=1;align=center;" vertex="1" parent="1">
          <mxGeometry x="1370" y="680" width="100" height="40" as="geometry" />
        </mxCell>
        <mxCell id="XcOHarNhl9v1NbZFJxqZ-60" style="edgeStyle=orthogonalEdgeStyle;rounded=0;orthogonalLoop=1;jettySize=auto;html=1;exitX=0;exitY=0.5;exitDx=0;exitDy=0;entryX=0.75;entryY=1;entryDx=0;entryDy=0;endArrow=none;endFill=0;" edge="1" parent="1" source="XcOHarNhl9v1NbZFJxqZ-56" target="XcOHarNhl9v1NbZFJxqZ-52">
          <mxGeometry relative="1" as="geometry" />
        </mxCell>
        <mxCell id="XcOHarNhl9v1NbZFJxqZ-56" value="cpf" style="ellipse;whiteSpace=wrap;html=1;align=center;" vertex="1" parent="1">
          <mxGeometry x="1480" y="650" width="100" height="40" as="geometry" />
        </mxCell>
        <mxCell id="XcOHarNhl9v1NbZFJxqZ-61" style="edgeStyle=orthogonalEdgeStyle;rounded=0;orthogonalLoop=1;jettySize=auto;html=1;exitX=0;exitY=0.5;exitDx=0;exitDy=0;entryX=1;entryY=0.25;entryDx=0;entryDy=0;endArrow=none;endFill=0;" edge="1" parent="1" source="XcOHarNhl9v1NbZFJxqZ-57" target="XcOHarNhl9v1NbZFJxqZ-52">
          <mxGeometry relative="1" as="geometry" />
        </mxCell>
        <mxCell id="XcOHarNhl9v1NbZFJxqZ-57" value="nacionalidade" style="ellipse;whiteSpace=wrap;html=1;align=center;" vertex="1" parent="1">
          <mxGeometry x="1510" y="590" width="100" height="40" as="geometry" />
        </mxCell>
        <mxCell id="XcOHarNhl9v1NbZFJxqZ-62" style="edgeStyle=orthogonalEdgeStyle;rounded=0;orthogonalLoop=1;jettySize=auto;html=1;exitX=0;exitY=1;exitDx=0;exitDy=0;entryX=1;entryY=0;entryDx=0;entryDy=0;endArrow=none;endFill=0;" edge="1" parent="1" source="XcOHarNhl9v1NbZFJxqZ-58" target="XcOHarNhl9v1NbZFJxqZ-52">
          <mxGeometry relative="1" as="geometry" />
        </mxCell>
        <mxCell id="XcOHarNhl9v1NbZFJxqZ-58" value="genero" style="ellipse;whiteSpace=wrap;html=1;align=center;" vertex="1" parent="1">
          <mxGeometry x="1500" y="540" width="100" height="40" as="geometry" />
        </mxCell>
        <mxCell id="q85OYb89AAFOKAMzmCl3-4" style="edgeStyle=orthogonalEdgeStyle;rounded=0;orthogonalLoop=1;jettySize=auto;html=1;exitX=1;exitY=0.5;exitDx=0;exitDy=0;entryX=0;entryY=0.5;entryDx=0;entryDy=0;endArrow=none;endFill=0;" edge="1" parent="1" source="q85OYb89AAFOKAMzmCl3-3" target="XcOHarNhl9v1NbZFJxqZ-52">
          <mxGeometry relative="1" as="geometry" />
        </mxCell>
        <mxCell id="q85OYb89AAFOKAMzmCl3-3" value="idade" style="ellipse;whiteSpace=wrap;html=1;align=center;" vertex="1" parent="1">
          <mxGeometry x="1200" y="595" width="100" height="40" as="geometry" />
        </mxCell>
        <mxCell id="q85OYb89AAFOKAMzmCl3-41" value="Movimentacao" style="shape=rhombus;perimeter=rhombusPerimeter;whiteSpace=wrap;html=1;align=center;" vertex="1" parent="1">
          <mxGeometry x="710" y="820" width="120" height="60" as="geometry" />
        </mxCell>
        <mxCell id="q85OYb89AAFOKAMzmCl3-44" style="edgeStyle=orthogonalEdgeStyle;rounded=0;orthogonalLoop=1;jettySize=auto;html=1;exitX=0.25;exitY=0;exitDx=0;exitDy=0;strokeWidth=3;" edge="1" parent="1" source="XcOHarNhl9v1NbZFJxqZ-71" target="q85OYb89AAFOKAMzmCl3-41">
          <mxGeometry relative="1" as="geometry" />
        </mxCell>
        <mxCell id="q85OYb89AAFOKAMzmCl3-51" style="edgeStyle=orthogonalEdgeStyle;rounded=0;orthogonalLoop=1;jettySize=auto;html=1;exitX=1;exitY=0.25;exitDx=0;exitDy=0;entryX=0;entryY=1;entryDx=0;entryDy=0;strokeWidth=3;endArrow=none;endFill=0;" edge="1" parent="1" source="XcOHarNhl9v1NbZFJxqZ-71" target="q85OYb89AAFOKAMzmCl3-50">
          <mxGeometry relative="1" as="geometry" />
        </mxCell>
        <mxCell id="XcOHarNhl9v1NbZFJxqZ-71" value="MovimentaÃ§Ãµes" style="rounded=1;arcSize=10;whiteSpace=wrap;html=1;align=center;" vertex="1" parent="1">
          <mxGeometry x="990" y="1110" width="100" height="40" as="geometry" />
        </mxCell>
        <mxCell id="XcOHarNhl9v1NbZFJxqZ-73" style="edgeStyle=orthogonalEdgeStyle;rounded=0;orthogonalLoop=1;jettySize=auto;html=1;exitX=1;exitY=0.5;exitDx=0;exitDy=0;entryX=0.11;entryY=0.054;entryDx=0;entryDy=0;entryPerimeter=0;endArrow=none;endFill=0;" edge="1" parent="1" source="q85OYb89AAFOKAMzmCl3-42" target="XcOHarNhl9v1NbZFJxqZ-71">
          <mxGeometry relative="1" as="geometry">
            <mxPoint x="985.3553390593274" y="1074.142135623731" as="sourcePoint" />
          </mxGeometry>
        </mxCell>
        <mxCell id="XcOHarNhl9v1NbZFJxqZ-78" value="tipo" style="ellipse;whiteSpace=wrap;html=1;align=center;" vertex="1" parent="1">
          <mxGeometry x="1040" y="1190" width="100" height="40" as="geometry" />
        </mxCell>
        <mxCell id="XcOHarNhl9v1NbZFJxqZ-79" style="edgeStyle=orthogonalEdgeStyle;rounded=0;orthogonalLoop=1;jettySize=auto;html=1;exitX=0.5;exitY=0;exitDx=0;exitDy=0;entryX=0.854;entryY=1.002;entryDx=0;entryDy=0;entryPerimeter=0;endArrow=none;endFill=0;" edge="1" parent="1" source="XcOHarNhl9v1NbZFJxqZ-78" target="XcOHarNhl9v1NbZFJxqZ-71">
          <mxGeometry relative="1" as="geometry" />
        </mxCell>
        <mxCell id="XcOHarNhl9v1NbZFJxqZ-84" style="edgeStyle=orthogonalEdgeStyle;rounded=0;orthogonalLoop=1;jettySize=auto;html=1;exitX=1;exitY=0.5;exitDx=0;exitDy=0;entryX=0;entryY=0.75;entryDx=0;entryDy=0;endArrow=none;endFill=0;strokeWidth=3;" edge="1" parent="1" source="XcOHarNhl9v1NbZFJxqZ-81" target="XcOHarNhl9v1NbZFJxqZ-71">
          <mxGeometry relative="1" as="geometry" />
        </mxCell>
        <mxCell id="XcOHarNhl9v1NbZFJxqZ-81" value="Recursos PortuÃ¡rios" style="shape=rhombus;perimeter=rhombusPerimeter;whiteSpace=wrap;html=1;align=center;" vertex="1" parent="1">
          <mxGeometry x="770" y="1110" width="150" height="70" as="geometry" />
        </mxCell>
        <mxCell id="XcOHarNhl9v1NbZFJxqZ-83" value="Recursos Humanos" style="shape=rhombus;perimeter=rhombusPerimeter;whiteSpace=wrap;html=1;align=center;" vertex="1" parent="1">
          <mxGeometry x="860" y="1230" width="150" height="60" as="geometry" />
        </mxCell>
        <mxCell id="XcOHarNhl9v1NbZFJxqZ-85" style="edgeStyle=orthogonalEdgeStyle;rounded=0;orthogonalLoop=1;jettySize=auto;html=1;exitX=1;exitY=0;exitDx=0;exitDy=0;entryX=0.169;entryY=1.026;entryDx=0;entryDy=0;entryPerimeter=0;endArrow=none;endFill=0;strokeWidth=3;" edge="1" parent="1" source="XcOHarNhl9v1NbZFJxqZ-83" target="XcOHarNhl9v1NbZFJxqZ-71">
          <mxGeometry relative="1" as="geometry" />
        </mxCell>
        <mxCell id="q85OYb89AAFOKAMzmCl3-42" value="&lt;span style=&quot;border-bottom: 1px dotted&quot;&gt;mov_id&lt;/span&gt;" style="ellipse;whiteSpace=wrap;html=1;align=center;" vertex="1" parent="1">
          <mxGeometry x="885" y="1050" width="100" height="40" as="geometry" />
        </mxCell>
        <mxCell id="q85OYb89AAFOKAMzmCl3-50" value="Equipes" style="shape=rhombus;perimeter=rhombusPerimeter;whiteSpace=wrap;html=1;align=center;" vertex="1" parent="1">
          <mxGeometry x="1200" y="1000" width="120" height="60" as="geometry" />
        </mxCell>
        <mxCell id="q85OYb89AAFOKAMzmCl3-54" value="trip_id" style="ellipse;whiteSpace=wrap;html=1;align=center;fontStyle=4;" vertex="1" parent="1">
          <mxGeometry x="1190" y="660" width="100" height="40" as="geometry" />
        </mxCell>
        <mxCell id="ndQAZXRSmygiRCQ2utS4-5" style="edgeStyle=orthogonalEdgeStyle;rounded=0;orthogonalLoop=1;jettySize=auto;html=1;exitX=1;exitY=1;exitDx=0;exitDy=0;entryX=0.081;entryY=-0.075;entryDx=0;entryDy=0;entryPerimeter=0;" edge="1" parent="1" source="XcOHarNhl9v1NbZFJxqZ-23" target="XcOHarNhl9v1NbZFJxqZ-22">
          <mxGeometry relative="1" as="geometry" />
        </mxCell>
      </root>
    </mxGraphModel>
  </diagram>
</mxfile>
